<svg width="40" height="16" viewBox="0 0 40 16" fill="none" xmlns="http://www.w3.org/2000/svg">
<path d="M26.4968 15.595C21.7747 15.595 16.5768 13.7814 10.9858 10.1752C10.663 9.96715 10.5698 9.53654 10.7785 9.21376C10.9872 8.89098 11.4171 8.79706 11.7399 9.00645C18.5809 13.4183 24.7479 15.035 30.069 13.8044C34.8732 12.6955 37.5883 9.50594 38.4266 8.36645C34.7041 4.18418 30.4975 1.97756 25.9166 1.80713C17.1722 1.48156 9.84282 8.73237 9.77047 8.80541C9.63969 8.93619 9.46229 9.01063 9.27725 9.01063H0.695655C0.311653 9.01063 0 8.69898 0 8.31497C0 7.93097 0.311653 7.61932 0.695655 7.61932H8.99273C10.3089 6.36645 17.342 0.0979029 25.9577 0.416513C31.0902 0.604339 35.7587 3.10939 39.8325 7.8621C40.0273 8.08958 40.0551 8.41584 39.9007 8.67324C39.7789 8.87567 36.8481 13.6541 30.4105 15.1533C29.1465 15.4482 27.8408 15.595 26.4968 15.595Z" fill="#F8AF27"/>
<path d="M25.6842 2.74072C23.2299 2.74072 21.2104 4.63012 20.9976 7.03013H22.4097C22.6184 5.40021 23.9986 4.13203 25.6842 4.13203C27.5131 4.13203 29.0011 5.62004 29.0011 7.44891C29.0011 9.27779 27.5131 10.7658 25.6842 10.7658C24.4633 10.7658 23.4066 10.0952 22.8306 9.11013H21.2849C21.959 10.8875 23.6737 12.1571 25.6842 12.1571C28.2804 12.1571 30.3924 10.0451 30.3924 7.44891C30.3924 4.85273 28.2804 2.74072 25.6842 2.74072Z" fill="#F8AF27"/>
</svg>
