<svg width="15" height="24" viewBox="0 0 15 24" fill="none" xmlns="http://www.w3.org/2000/svg">
<path d="M0.824908 23.8212C1.19179 24.1071 1.72464 24.0439 2.0129 23.6767L7.55976 16.6403L12.9814 23.6677C13.1474 23.8844 13.3978 23.9957 13.654 23.9957C13.8346 23.9957 14.0151 23.9385 14.1694 23.8212C14.5392 23.5383 14.6091 23.0116 14.3267 22.6414L8.63711 15.2769L14.2742 8.12615C14.5217 7.81015 14.513 7.36774 14.2539 7.06377L8.45949 0.295206C8.30226 0.111621 8.07514 0.00628534 7.83638 0.000266168C7.59471 -0.00575301 7.36468 0.0905539 7.19871 0.26511L0.941377 6.90727C0.658938 7.20823 0.635645 7.66569 0.886055 7.99373L6.49698 15.2679L0.679321 22.6414C0.391058 23.0056 0.458028 23.5352 0.824908 23.8212ZM2.66513 7.53627L7.78688 2.10096L12.5185 7.62957L7.57432 13.8985L2.66513 7.53627Z" fill="#12965D"/>
</svg>
