<svg width="14" height="21" viewBox="0 0 14 21" fill="none" xmlns="http://www.w3.org/2000/svg">
<path d="M6.87256 15.207L6.40869 15.1738C5.02854 15.0753 4.13611 14.418 3.50342 13.502L3.50146 13.499C3.03194 12.827 2.80241 11.8718 2.70654 10.7256C2.61108 9.58377 2.65288 8.3363 2.66748 7.10254C2.68178 5.89338 2.67068 4.68257 2.4458 3.70117C2.22669 2.74496 1.77349 1.88839 0.82959 1.51855C0.829509 1.51612 0.828613 1.51341 0.828613 1.51074V0.546875C1.27455 0.653533 1.61808 0.849922 1.89111 1.11133C2.22016 1.42643 2.47115 1.85715 2.66162 2.39453C3.04862 3.48656 3.14824 4.90103 3.23096 6.38574C3.31122 7.82642 3.37504 9.35213 3.73975 10.5176C3.9249 11.1092 4.20057 11.6544 4.6333 12.0596C5.07722 12.4751 5.65055 12.7085 6.35693 12.7314L6.87256 12.749V2.64258C6.87245 2.25945 6.72434 1.79402 6.35498 1.55664L6.35107 1.55371L5.30615 0.896484C5.3045 0.886972 5.3042 0.87683 5.3042 0.867188V0.523438H9.0249V0.867188C9.0249 0.87692 9.02268 0.886892 9.021 0.896484L7.97705 1.55371L7.97314 1.55664C7.60396 1.79407 7.45567 2.25953 7.45557 2.64258V12.749L7.97217 12.7314C8.67846 12.7085 9.25093 12.475 9.69482 12.0596C10.1276 11.6544 10.4032 11.1092 10.5884 10.5176C10.9531 9.35213 11.0169 7.82642 11.0972 6.38574C11.1799 4.90102 11.2805 3.48657 11.6675 2.39453C11.858 1.8571 12.1089 1.42643 12.438 1.11133C12.7111 0.84981 13.0543 0.652524 13.5005 0.545898V1.5332C13.5005 1.53598 13.4987 1.53853 13.4985 1.54102C12.5551 1.91098 12.1024 2.76763 11.8833 3.72363C11.6585 4.7049 11.6473 5.91506 11.6616 7.12402C11.6762 8.35781 11.717 9.60521 11.6216 10.7471C11.5257 11.8935 11.2972 12.8494 10.8276 13.5215L10.8257 13.5244C10.193 14.4404 9.30048 15.0977 7.92041 15.1963L7.45557 15.2295V18.3809C7.4556 18.7639 7.60396 19.2293 7.97314 19.4668V19.4678L7.97705 19.4697L9.021 20.127C9.0227 20.1365 9.02489 20.1465 9.0249 20.1562V20.5H5.3042V20.1562C5.30422 20.1466 5.30448 20.1365 5.30615 20.127L6.35107 19.4697L6.35498 19.4668C6.72444 19.2294 6.87253 18.764 6.87256 18.3809V15.207Z" stroke="#F82727"/>
</svg>
