<svg width="17" height="15" viewBox="0 0 17 15" fill="none" xmlns="http://www.w3.org/2000/svg">
<path d="M8.5 0.488525C4.40408 0.488525 1.07143 3.40936 1.07143 6.99918C1.07143 9.62617 2.90497 11.9453 5.64286 12.9572V13.5099H1.64286V12.5082H0.5V14.5115H6.78571V12.3106L6.40513 12.1923C3.89038 11.4128 2.21429 9.33488 2.21429 6.99923C2.21429 3.95074 5.02173 1.49024 8.5 1.49024C11.9783 1.49024 14.7857 3.95074 14.7857 6.99923C14.7857 9.33484 13.1095 11.4129 10.5971 12.1923L10.2176 12.3106L10.2132 14.5115H16.5V12.5082H15.3571V13.5099H11.3583L11.3594 12.9562C14.0952 11.9442 15.9286 9.62606 15.9286 6.99918C15.9286 3.40936 12.5959 0.488525 8.5 0.488525Z" fill="#279EF8"/>
</svg>
