<svg width="20" height="20" viewBox="0 0 20 20" fill="none" xmlns="http://www.w3.org/2000/svg">
<path d="M10 1C10.132 1 10.263 1 10.393 1C9.10837 2.19371 8.28262 3.79985 8.05932 5.53923C7.83602 7.2786 8.22928 9.04124 9.17076 10.5207C10.1122 12.0002 11.5424 13.103 13.2126 13.6375C14.8829 14.1719 16.6876 14.1042 18.313 13.446C17.6878 14.9505 16.6658 16.257 15.3562 17.2263C14.0466 18.1955 12.4985 18.791 10.8769 18.9494C9.2554 19.1077 7.62129 18.823 6.14892 18.1254C4.67654 17.4279 3.42114 16.3437 2.51661 14.9886C1.61209 13.6335 1.09238 12.0583 1.01291 10.431C0.933445 8.80366 1.29721 7.1853 2.0654 5.74852C2.83359 4.31174 3.97739 3.11043 5.37479 2.27274C6.77219 1.43505 8.37078 0.992397 10 0.992004V1Z" stroke="white" stroke-width="2" stroke-linecap="round" stroke-linejoin="round"/>
</svg>
